<?xml version="1.0" encoding="iso-8859-1"?>
<!-- Generator: Adobe Illustrator 19.0.0, SVG Export Plug-In . SVG Version: 6.00 Build 0)  -->
<svg version="1.1" id="Capa_1" xmlns="http://www.w3.org/2000/svg" xmlns:xlink="http://www.w3.org/1999/xlink" x="0px" y="0px"
	 viewBox="0 0 469.333 469.333" style="enable-background:new 0 0 469.333 469.333;" xml:space="preserve">
<g>
	<g>
		<g>
			<path d="M458.667,256h-21.333c-5.891,0-10.667,4.776-10.667,10.667v160h-384v-384h160c5.891,0,10.667-4.776,10.667-10.667V10.667
				C213.333,4.776,208.558,0,202.667,0h-160C19.103,0,0,19.103,0,42.667v384c0,23.564,19.103,42.667,42.667,42.667h384
				c23.564,0,42.667-19.102,42.667-42.667v-160C469.333,260.776,464.558,256,458.667,256z"/>
			<path d="M458.667,0h-192C260.776,0,256,4.776,256,10.667V32c0,5.891,4.776,10.667,10.667,10.667H396.5L152.459,286.707
				c-4.166,4.166-4.166,10.919,0,15.085l15.082,15.082c4.166,4.166,10.919,4.166,15.085,0L426.667,72.833v129.833
				c0,5.891,4.776,10.667,10.667,10.667h21.333c5.891,0,10.667-4.776,10.667-10.667v-192C469.333,4.776,464.558,0,458.667,0z"/>
		</g>
	</g>
</g>
<g>
</g>
<g>
</g>
<g>
</g>
<g>
</g>
<g>
</g>
<g>
</g>
<g>
</g>
<g>
</g>
<g>
</g>
<g>
</g>
<g>
</g>
<g>
</g>
<g>
</g>
<g>
</g>
<g>
</g>
</svg>
